# xmcd
# 
# Track frame offsets:
#     150
#     18778
#     39996
#     68668
#     104814
#     120070
#     134503
#     185627
# 
# Disc length: 2705
# 
# Revision: 1
# Processed by: cddbd v1.5.2PL0 Copyright (c) Steve Scherf et al.
# Submitted via: fre:ac v1.1beta1pre4
# 
DISCID=640a8f08
DTITLE=Cody Canada - Some Old, Some New, Maybe A Cover Or Two - CD 1
DYEAR=2013
DGENRE=Americana
TTITLE0=If You're Ever In Oklahoma
TTITLE1=Down
TTITLE2=Breakdown
TTITLE3=250,000 Things To Do
TTITLE4=Ruby Ridge
TTITLE5=Pay
TTITLE6=17
TTITLE7=Record Exec
EXTD=
EXTT0=
EXTT1=
EXTT2=
EXTT3=
EXTT4=
EXTT5=
EXTT6=
EXTT7=
PLAYORDER=
